<?xml version="1.0" standalone="no"?>
<svg viewBox="0 0 200 200" xmlns="http://www.w3.org/2000/svg">
  <path fill="#FF0066" d="M43.1,-57.3C56.3,-58.7,67.5,-47.3,64.5,-35C61.5,-22.7,44.3,-9.4,33.8,-1.1C23.4,7.2,19.6,10.5,17.3,17.4C15,24.3,14.2,34.8,8.6,42.4C3.1,49.9,-7.1,54.5,-10.6,48C-14.1,41.5,-10.9,24.1,-16.5,15.5C-22.2,6.9,-36.7,7.1,-37.1,5.3C-37.5,3.4,-23.8,-0.6,-20.5,-10C-17.2,-19.4,-24.3,-34.2,-22.7,-38C-21,-41.8,-10.5,-34.5,2.3,-38C15,-41.5,30,-55.8,43.1,-57.3Z" transform="translate(100 100)" />
</svg>
