<svg id="visual" viewBox="0 0 960 540" width="960" height="540" xmlns="http://www.w3.org/2000/svg" xmlns:xlink="http://www.w3.org/1999/xlink" version="1.1"><rect x="0" y="0" width="960" height="540" fill="#001220"></rect><defs><linearGradient id="grad1_0" x1="43.8%" y1="0%" x2="100%" y2="100%"><stop offset="14.444444444444446%" stop-color="#001220" stop-opacity="1"></stop><stop offset="85.55555555555554%" stop-color="#001220" stop-opacity="1"></stop></linearGradient></defs><defs><linearGradient id="grad2_0" x1="0%" y1="0%" x2="56.3%" y2="100%"><stop offset="14.444444444444446%" stop-color="#001220" stop-opacity="1"></stop><stop offset="85.55555555555554%" stop-color="#001220" stop-opacity="1"></stop></linearGradient></defs><g transform="translate(960, 0)"><path d="M0 297C-18.9 274.5 -37.8 252.1 -54.1 236.9C-70.3 221.7 -84 213.8 -100.7 209C-117.4 204.2 -137.1 202.5 -159.6 200.1C-182.1 197.8 -207.2 194.9 -230.6 183.9C-254.1 172.9 -275.8 153.9 -267.6 128.9C-259.4 103.9 -221.4 73 -221.3 50.5C-221.2 28.1 -259.1 14 -297 0L0 0Z" fill="#fa3ce3"></path></g><g transform="translate(0, 540)"><path d="M0 -297C17.7 -270.1 35.4 -243.1 52.7 -231.1C70 -219 86.9 -221.7 107.6 -223.4C128.3 -225.2 152.7 -225.8 173.3 -217.3C194 -208.9 210.8 -191.3 211.1 -168.3C211.4 -145.4 195.3 -117.2 209.9 -101.1C224.5 -85 269.9 -80.9 289.6 -66.1C309.2 -51.3 303.1 -25.6 297 0L0 0Z" fill="#fa3ce3"></path></g></svg>